<svg xmlns="http://www.w3.org/2000/svg" viewBox="340 130 340 350" width="100%" height="100%">
  <!-- Fondo Negro -->
  <rect x="0" y="0" width="2000" height="2000" fill="#000000" />
  
  <!-- Forma Blanca 1 (Derecha): Con el extremo derecho más largo y la curva inferior exacta -->
  <path d="M 446,260 L 446,363 L 448,377 L 451,388 L 453,391 L 454,396 L 461,410 L 467,419 L 481,434 L 495,444 L 509,451 L 511,451 L 514,453 L 521,455 L 537,458 L 653,458 L 653,268 L 636,277 L 624,280 L 597,279 L 596,400 L 539,400 L 531,398 L 521,393 L 509,381 L 503,368 L 501,357 L 501,280 L 498,272 L 496,269 L 488,262 L 486,262 L 483,260 L 479,259 Z" fill="#FFFFFF" />
  
  <!-- Forma Blanca 2 (Izquierda): Separada perfectamente manteniendo el canal negativo -->
  <path d="M 370,181 L 371,257 L 371,359 L 370,413 L 371,458 L 426,458 L 426,240 L 428,238 L 487,239 L 496,242 L 498,244 L 504,247 L 515,259 L 519,267 L 522,278 L 522,358 L 525,366 L 533,375 L 542,379 L 577,379 L 577,276 L 575,261 L 572,250 L 570,247 L 570,245 L 568,242 L 568,240 L 564,232 L 562,230 L 561,227 L 554,217 L 540,203 L 529,195 L 522,192 L 520,190 L 518,190 L 513,187 L 504,184 L 489,181 Z" fill="#FFFFFF" />
  
  <!-- Forma Verde (Detalle superior): Copiada de la base curva y punta asimétrica -->
  <path d="M 645,151 L 631,152 L 622,155 L 616,158 L 614,160 L 611,161 L 602,170 L 599,175 L 596,186 L 597,196 L 602,206 L 609,213 L 613,219 L 615,225 L 615,232 L 614,236 L 609,244 L 598,254 L 616,255 L 630,252 L 640,247 L 650,237 L 651,235 L 651,233 L 653,230 L 654,226 L 654,218 L 653,213 L 651,210 L 650,206 L 636,186 L 635,182 L 635,173 L 636,169 L 639,164 L 639,162 L 645,155 Z" fill="#7CB342" />
</svg>
